<?xml version="1.0" encoding="UTF-8" standalone="no"?>
<svg
   xmlns:dc="http://purl.org/dc/elements/1.1/"
   xmlns:cc="http://creativecommons.org/ns#"
   xmlns:rdf="http://www.w3.org/1999/02/22-rdf-syntax-ns#"
   xmlns:svg="http://www.w3.org/2000/svg"
   xmlns="http://www.w3.org/2000/svg"
   width="20mm"
   height="20mm"
   viewBox="0 0 20 20"
   version="1.1"
   id="svg8">
  <defs
     id="defs2" />
  <metadata
     id="metadata5">
    <rdf:RDF>
      <cc:Work
         rdf:about="">
        <dc:format>image/svg+xml</dc:format>
        <dc:type
           rdf:resource="http://purl.org/dc/dcmitype/StillImage" />
        <dc:title></dc:title>
      </cc:Work>
    </rdf:RDF>
  </metadata>
  <path
     id="path864"
     style="fill:#000000;fill-opacity:1;stroke-width:7.55906;stroke-linejoin:round;paint-order:stroke fill markers"
     d="M 37.794922 0 A 37.795279 37.795279 0 0 0 30.84375 0.64648438 L 26.900391 9.5917969 A 30.236219 30.236219 0 0 0 18.816406 14.257812 L 9.0976562 13.201172 A 37.795279 37.795279 0 0 0 2.1464844 25.238281 L 7.921875 33.128906 A 30.236219 30.236219 0 0 0 7.5585938 37.794922 A 30.236219 30.236219 0 0 0 7.921875 42.460938 L 2.1464844 50.351562 A 37.795279 37.795279 0 0 0 9.0976562 62.388672 L 18.816406 61.332031 A 30.236219 30.236219 0 0 0 26.900391 66 L 30.84375 74.945312 A 37.795279 37.795279 0 0 0 37.794922 75.589844 A 37.795279 37.795279 0 0 0 44.744141 74.945312 L 48.689453 66 A 30.236219 30.236219 0 0 0 56.775391 61.332031 L 66.494141 62.388672 A 37.795279 37.795279 0 0 0 73.443359 50.351562 L 67.667969 42.460938 A 30.236219 30.236219 0 0 0 68.03125 37.794922 A 30.236219 30.236219 0 0 0 67.667969 33.126953 L 73.443359 25.238281 A 37.795279 37.795279 0 0 0 66.492188 13.201172 L 56.771484 14.257812 A 30.236219 30.236219 0 0 0 48.689453 9.5898438 L 44.746094 0.64648438 A 37.795279 37.795279 0 0 0 37.794922 0 z M 37.720703 18.898438 A 18.897638 18.897638 0 0 1 37.794922 18.898438 A 18.897638 18.897638 0 0 1 56.693359 37.794922 A 18.897638 18.897638 0 0 1 37.794922 56.693359 A 18.897638 18.897638 0 0 1 18.898438 37.794922 A 18.897638 18.897638 0 0 1 37.720703 18.898438 z "
     transform="scale(0.26458333)" />
</svg>
