<?xml version="1.0" encoding="UTF-8" standalone="no"?>
<svg
   xmlns:dc="http://purl.org/dc/elements/1.1/"
   xmlns:cc="http://creativecommons.org/ns#"
   xmlns:rdf="http://www.w3.org/1999/02/22-rdf-syntax-ns#"
   xmlns:svg="http://www.w3.org/2000/svg"
   xmlns="http://www.w3.org/2000/svg"
   id="svg8"
   version="1.1"
   viewBox="0 0 20 20"
   height="20mm"
   width="20mm">
  <defs
     id="defs2" />
  <metadata
     id="metadata5">
    <rdf:RDF>
      <cc:Work
         rdf:about="">
        <dc:format>image/svg+xml</dc:format>
        <dc:type
           rdf:resource="http://purl.org/dc/dcmitype/StillImage" />
        <dc:title></dc:title>
      </cc:Work>
    </rdf:RDF>
  </metadata>
  <path
     id="path1400"
     transform="scale(0.26458333)"
     d="M 37.794922 0 A 37.795277 37.795277 0 0 0 0 37.794922 A 37.795277 37.795277 0 0 0 37.794922 75.589844 A 37.795277 37.795277 0 0 0 75.589844 37.794922 A 37.795277 37.795277 0 0 0 37.794922 0 z M 37.794922 11.337891 A 4.7244096 4.7244096 0 0 1 42.519531 16.0625 A 4.7244096 4.7244096 0 0 1 37.794922 20.787109 A 4.7244096 4.7244096 0 0 1 33.070312 16.0625 A 4.7244096 4.7244096 0 0 1 37.794922 11.337891 z M 33.070312 26.457031 L 42.519531 26.457031 L 42.519531 64.251953 L 33.070312 64.251953 L 33.070312 26.457031 z "
     style="fill:#000000;fill-opacity:1;stroke:none;stroke-width:0.75590557;stroke-linecap:round;stroke-linejoin:round;stroke-miterlimit:4;stroke-dasharray:none;stroke-dashoffset:0;stroke-opacity:1;paint-order:stroke markers fill" />
</svg>
