<?xml version="1.0" encoding="UTF-8" standalone="no"?>
<svg
   xmlns:dc="http://purl.org/dc/elements/1.1/"
   xmlns:cc="http://creativecommons.org/ns#"
   xmlns:rdf="http://www.w3.org/1999/02/22-rdf-syntax-ns#"
   xmlns:svg="http://www.w3.org/2000/svg"
   xmlns="http://www.w3.org/2000/svg"
   width="20mm"
   height="20mm"
   viewBox="0 0 20 20"
   version="1.1"
   id="svg8">
  <defs
     id="defs2" />
  <metadata
     id="metadata5">
    <rdf:RDF>
      <cc:Work
         rdf:about="">
        <dc:format>image/svg+xml</dc:format>
        <dc:type
           rdf:resource="http://purl.org/dc/dcmitype/StillImage" />
        <dc:title></dc:title>
      </cc:Work>
    </rdf:RDF>
  </metadata>
  <g
     id="layer1">
    <path
       id="rect963"
       style="fill:#000000;fill-opacity:0.98374;fill-rule:nonzero;stroke:none;stroke-width:7.55906;stroke-linecap:butt;stroke-linejoin:round;stroke-miterlimit:4;stroke-dasharray:none;stroke-opacity:1;paint-order:stroke fill markers"
       d="m 22.677734,0 c -2.093862,0 -3.779296,1.6854375 -3.779296,3.7792969 0.0164,0.7360596 -0.02328,3.0570779 0,3.7792969 h -3.78125 c -2.093861,0 -3.779297,1.6854374 -3.779297,3.7792972 v 60.472656 c 0,2.093862 1.685436,3.779297 3.779297,3.779297 h 37.796874 c 2.093863,0 3.779297,-1.685435 3.779297,-3.779297 V 68.03125 h 3.779297 c 2.093862,-5.67e-4 3.779286,-1.685435 3.779297,-3.779297 V 18.898438 c -2.42e-4,-3.779758 2.31e-4,-3.781021 -3.779297,-7.560547 L 52.912109,3.7792969 C 49.132582,-2.303061e-4 49.133043,0 45.353516,0 Z m 0,3.7792969 H 45.353516 V 11.337891 C 41.573988,7.5583634 41.574449,7.5585937 37.794922,7.5585938 H 22.677734 Z m -7.560546,7.5585941 h 22.677734 v 11.339843 c 0,2.093859 1.685435,3.779297 3.779297,3.779297 H 52.914062 V 71.810547 H 15.117188 Z m 37.798828,7.560547 h 7.55664 V 64.251953 H 56.693359 V 26.457031 c -2.41e-4,-3.778924 -3.16e-4,-3.781566 -3.777343,-7.558593 z"
       transform="scale(0.26458333)" />
  </g>
</svg>
